# xmcd CD database file
#
# Track frame offsets:
#	150
#	29226
#	59674
#	79348
#	102241
#	118660
#	142588
#	173090
#	192843
#	216283
#	232970
#	250865
#	272608
#	303266
#	327784
#	342580
#
# Disc length: 4741 seconds
#
# Revision: 0
# Processed by: cddbd v1.5.2PL0 Copyright (c) Steve Scherf et al.
# Submitted via: CDex 1.70beta2
#
DISCID=e7128310
DTITLE=Various Artist - Jazziz On Disc Winter 2011_2012 - Disc 2 - Other Voices
DYEAR=2011
DGENRE=Jazz
TTITLE0=Spyro Gyra - Antigua
TTITLE1=Tim Collins - TNT
TTITLE2=Michael Forman - Peace Train
TTITLE3=Mario Adnet - Takatanga
TTITLE4=Jessy J - Till You Make Up Your Mind
TTITLE5=The Dave Brubeck Quartet - Three To Get Ready
TTITLE6=Bob James/Keiko Matsui - Altair and Vega
TTITLE7=Chuck Loeb - Organeleptic
TTITLE8=Antonio Adolfo - Chora Baiao
TTITLE9=Richard Elliot - Broom Town
TTITLE10=Dino Saluzzi - Anja Lechner - Felix Saluzzi - Candor - Soledad
TTITLE11=Kyle Eastwood - Marciac
TTITLE12=Wolfgang Muthspiel - Sunspot
TTITLE13=Miles Davis Quintet - Agitation
TTITLE14=Peter Oprisko and Frank Catalano - Ring-A-Ding Romance
TTITLE15=Trombone Shorty - For True
EXTD=YEAR: 2011
EXTT0=
EXTT1=
EXTT2=
EXTT3=
EXTT4=
EXTT5=
EXTT6=
EXTT7=
EXTT8=
EXTT9=
EXTT10=
EXTT11=
EXTT12=
EXTT13=
EXTT14=
EXTT15=
PLAYORDER=
